<?xml version="1.0" encoding="UTF-8"?><svg id="a" xmlns="http://www.w3.org/2000/svg" viewBox="0 0 100 100"><defs><style>.b{fill:#fff;}</style></defs><path class="b" d="m50.18,1.49c26.78-.1,48.51,21.86,48.42,48.68-.09,26.4-21.54,48.33-48.58,48.35-27.14.02-48.58-22.13-48.62-48.66C1.37,23.11,23.66,1,50.18,1.49Zm-9.21,69.55s.02,0,.03,0c0,2.05.01,4.1,0,6.15-.06,9.28-.06,9.15,9.31,9.21,3.05.02,3.6-1.1,3.55-3.81-.15-7.94.03-15.89-.08-23.83-.03-2.17.59-3.07,2.79-2.8,1.01.12,2.06-.07,3.07.05,3.13.36,4.65-.3,5.14-4.1,1.05-8.2,1.39-8.43-6.36-8.04-4.12.21-4.93-1.23-4.68-4.91.24-3.57-.43-7.22,3.67-9.25,2.05-1.01,4.17-1.15,6.34-1.03,1.58.08,2.42-.37,2.38-2.11-.2-9.06,1.43-7.74-7.03-8.17-1.66-.08-3.34-.18-4.99-.03-3.63.33-6.65,1.77-9.27,4.52-3.23,3.39-3.3,7.6-3.81,11.7-.34,2.78.84,6.32-.49,8.26-1.64,2.39-5.43.54-8.27.88-1.2.15-2.38.02-2.33,1.73.1,3.31-1.12,7.13.56,9.76,1.28,2.02,5.03.7,7.66.7,2.15,0,2.94.62,2.86,2.83-.15,4.09-.04,8.2-.04,12.3Z"/></svg>