<?xml version="1.0" encoding="UTF-8"?><svg id="a" xmlns="http://www.w3.org/2000/svg" viewBox="0 0 100 100"><defs><style>.b{fill:#fff;}</style></defs><path class="b" d="m98.51,50c.91,25.94-22.07,48.68-48.42,48.62-26.65-.06-48.3-22.09-48.63-48.06C1.13,23.73,24.07.09,52.53,1.44c23.62,1.13,46.7,21.93,45.99,48.56Zm-17.63-.31s-.02,0-.03,0c0-4.74.31-9.5-.09-14.21-.35-4.1-1.25-7.9-4.65-11.22-3.75-3.66-7.98-4.86-12.67-4.99-8.83-.24-17.67-.05-26.51-.08-10.89-.03-17.84,7.04-17.97,17.72-.11,8.71-.05,17.42-.05,26.13,0,10.31,6.73,17.62,16.94,18.11,9.33.45,18.72.55,28.04-.02,10.47-.64,17.13-7.08,17-18.38-.05-4.35,0-8.71,0-13.06Z"/><path class="b" d="m75.43,50.38c0,4.09-.47,8.25.1,12.27,1.11,7.85-5.43,13.22-12.66,12.85-8.8-.45-17.65-.22-26.48-.08-7.24.12-11.83-4.43-11.79-11.62.05-9.21-.06-18.42.04-27.63.09-7.61,4.28-11.59,11.93-11.59,9.34,0,18.68-.01,28.02,0,6.11.01,10.82,4.72,10.84,10.82.02,4.99,0,9.98,0,14.97Zm-25.36,16.52c8.91.82,17.01-8.41,16.98-16.69-.03-9.44-8.18-16.93-17.16-17.12-8.62-.19-16.28,8.11-16.87,16.66-.56,7.98,8.71,18.52,17.06,17.15Zm16.4-36.94c-2.16.49-3.21,1.74-3.02,3.81.17,1.87,1.25,3.21,3.17,3,1.75-.19,3.66-.85,3.51-3.2-.15-2.23-1.78-3.15-3.65-3.61Z"/><path class="b" d="m49.9,39.23c6.84.06,10.95,4.19,10.97,11.09.01,6.29-4.66,11.08-10.77,11.13-5.53.05-11.41-5.87-11.4-11.47.02-5.96,4.95-10.7,11.2-10.75Z"/></svg>