<?xml version="1.0" encoding="UTF-8"?><svg id="a" xmlns="http://www.w3.org/2000/svg" viewBox="0 0 100 100"><defs><style>.b{fill:#fff;}</style></defs><path class="b" d="m1.42,49.58C1.78,21.63,25.08-1.25,55.21,1.7c23.31,2.28,45.03,22.41,43.27,51.85-1.47,24.52-22.51,46.4-51.33,44.94C21.2,97.17,1.13,75.32,1.42,49.58Zm62.61-8.05c2.75,1.7,5.2,2.66,7.73,3.45,6.72,2.1,6.91,1.99,6.91-4.77,0-.64-.07-1.29.02-1.92.3-2.05-.34-2.81-2.6-3.01-5.05-.45-10.64-5.8-11.32-10.69-.43-3.1-1.7-4.54-4.94-3.92-.99.19-2.06.14-3.07,0-2.83-.39-3.69.69-3.65,3.58.16,13.19.11,26.39.07,39.59-.01,4.22-2.78,6.3-6.35,7.61-3.58,1.31-6.56.24-9.35-2.17-5.1-4.41-2.99-14.08,4.64-14.66,5.24-.4,4.24-3.06,4.26-6.02,0-.77-.08-1.55.01-2.3.25-2.11-.86-2.41-2.7-2.64-7.23-.89-14.82,5.23-17.94,11.83-5.68,12.03,4.6,27.85,18.9,27.21,10.1-.45,19.66-10.33,19.4-20.03-.18-6.86-.03-13.72-.03-21.13Z"/></svg>