<?xml version="1.0" encoding="UTF-8"?><svg id="a" xmlns="http://www.w3.org/2000/svg" viewBox="0 0 100 100"><defs><style>.b{fill:#fff;}</style></defs><path class="b" d="m50.05,1.63c26.72-1.19,48.74,22.39,48.56,48.22-.19,26.81-21.58,48.62-48.81,48.56-27.39-.05-48.06-22.45-48.41-48.25C1.04,24.03,23.43.29,50.05,1.63Zm-.43,69.32c6.89-.26,13.79.35,20.68-.73,5.31-.83,7.93-3.09,8.94-8.37,1.29-6.73,1.03-13.53.59-20.26-.6-9.31-2.92-11.45-12.17-12.33-12.63-1.2-25.28-1.03-37.91.15-5.62.52-8.46,3.76-9.14,9.53-.86,7.28-.89,14.51.03,21.8.75,5.92,3.26,8.47,9.07,9.47,6.63,1.14,13.28.43,19.91.75Z"/><path class="b" d="m43.84,49.69c0-2.3.05-4.6-.01-6.9-.05-2.01.49-2.18,2.15-1.08,3.57,2.36,7.2,4.64,11.17,6.33.75.32,1.27,1.17,1.89,1.78-.65.59-1.22,1.31-1.96,1.74-3.6,2.09-7.35,3.94-10.84,6.2-1.94,1.26-2.4.92-2.39-1.17.01-2.3,0-4.6,0-6.9h-.02Z"/></svg>